<?xml version="1.0" encoding="utf-8"?>
<!-- Generator: Adobe Illustrator 27.3.1, SVG Export Plug-In . SVG Version: 6.00 Build 0)  -->
<svg version="1.1" id="Laag_1" xmlns="http://www.w3.org/2000/svg" xmlns:xlink="http://www.w3.org/1999/xlink" x="0px" y="0px"
	 viewBox="0 0 128 128" style="enable-background:new 0 0 128 128;" xml:space="preserve">
<style type="text/css">
	.st0{fill:url(#SVGID_1_);}
</style>
<g>
	<linearGradient id="SVGID_1_" gradientUnits="userSpaceOnUse" x1="46.4194" y1="114.2301" x2="82.1972" y2="12.0079">
		<stop  offset="0" style="stop-color:#8A1102"/>
		<stop  offset="0.2156" style="stop-color:#E73B24"/>
		<stop  offset="0.5515" style="stop-color:#BF1818"/>
		<stop  offset="0.7697" style="stop-color:#EC6359"/>
		<stop  offset="1" style="stop-color:#A41610"/>
	</linearGradient>
	<path class="st0" d="M64,0C28.7,0,0,28.6,0,64c0,35.3,28.7,64,64,64s64-28.7,64-64C128,28.6,99.3,0,64,0z M118,64
		c0,29.8-24.2,54-54,54c-13.5,0-25.8-5-35.3-13.2l77.5-74.4C113.6,39.6,118,51.3,118,64z M10,64c0-29.8,24.2-54,54-54
		c13.5,0,25.8,5,35.3,13.2L21.8,97.6C14.4,88.4,10,76.7,10,64z"/>
</g>
</svg>
