<svg id="Layer_2" data-name="Layer 2" xmlns="http://www.w3.org/2000/svg" viewBox="0 0 368.08 177.48"><defs><style>.cls-1{fill:#ff3301;}.cls-2{fill:#2b8cbe;}.cls-3{fill:#fe9914;}.cls-4{fill:#80c41c;}</style></defs><title>vlot_logo</title><path class="cls-1" d="M208.16,119.89s7.69-16.49,16.52-34.13c6.06-12.09,12.7-24.42,17.59-33.58,10.35-19.42,19.94-30.52,22.33-33.33a.79.79,0,0,0-.16-1.18,97.54,97.54,0,0,0-19-8.74c-11.75-4-15.83-5.29-18.33-5.29s-3.5,3-4.25,5.79-5.63,30.33-8.63,52.33-7.46,55.16-7.7,57.59c-.06.52,0,.71.58,1A.72.72,0,0,0,208.16,119.89Z" transform="translate(-3.76 -3.64)"/><path class="cls-2" d="M217.63,121.92c-.18.39-.25.69.22,1a.89.89,0,0,0,1.25-.09,262.4,262.4,0,0,1,40.58-35.29,253.87,253.87,0,0,1,51.78-27.6,1,1,0,0,0,.4-1.5,186.13,186.13,0,0,0-14.68-16.56,121.86,121.86,0,0,0-14.45-12.27,1.7,1.7,0,0,0-2.06.15c-3.84,3.36-18.95,16.71-36.65,45.12C229.89,97.52,220.67,115.26,217.63,121.92Z" transform="translate(-3.76 -3.64)"/><path class="cls-3" d="M228.62,126l.58.47a.5.5,0,0,0,.57,0c2.56-1.4,22.16-11.46,55.66-16.87,27.45-4.44,51.33-1,57.38-.5a.66.66,0,0,0,.64-.94c-1.35-2.72-5.69-10.52-10.1-17.65s-7.64-12.2-8.75-13.75a1.08,1.08,0,0,0-1-.43c-2.89.49-9.25,1.48-22.9,4.87-12.56,3.13-24.27,7.64-42.06,18.13-16.11,9.5-27.56,23.07-30.05,25.93A.47.47,0,0,0,228.62,126Z" transform="translate(-3.76 -3.64)"/><path class="cls-4" d="M240.43,130.39c-.37.17-.33,1,0,1.08s21.13,7.67,57.5,12.17c32.18,4,56.25,5.37,72.94,5.44a.66.66,0,0,0,.53-1.08c-2.31-2.79-8.21-9.91-12.59-15a127.7,127.7,0,0,1-8.61-11.15,1.58,1.58,0,0,0-1.11-.69,303.69,303.69,0,0,0-53.91-1.28C260.66,122.2,240.87,130.2,240.43,130.39Z" transform="translate(-3.76 -3.64)"/><path class="cls-1" d="M197.89,131.31l11-2.86a.47.47,0,0,1,.56.27,39,39,0,0,1,2,7.46c.43,2.55.67,3.83-1.08,4.92a17.34,17.34,0,0,1-7.5,2c-2.25,0-3.6.19-4-1.63A45.82,45.82,0,0,1,197.89,131.31Z" transform="translate(-3.76 -3.64)"/><path d="M57.21,77,23.69,139H13.18L3.76,77H16.85l4.83,43.33L43.09,77Z" transform="translate(-3.76 -3.64)"/><path d="M71.18,52.51H83.85L70.18,121.85c-1.24,6.69,2.72,6,10.9,6l-2.23,11-7,0c-10.33,0-16.17-6.47-14.5-16.81Z" transform="translate(-3.76 -3.64)"/><path d="M138.93,111.73c-2.84,16.31-10.9,28-29.08,28-15.91,0-21.93-12.26-19.2-27.95L92,104c3.18-18,12.84-27.83,29.2-27.83,15.34,0,22.15,10.67,19.09,27.83Zm-12-.42,1.34-7c2-10.51-1-16.42-9-16.42s-12.94,7-14.88,16.42l-1.35,7c-1.79,9.42-.11,16.79,9,16.79C120.52,128.1,125.18,119.35,126.9,111.31Z" transform="translate(-3.76 -3.64)"/><path d="M170.4,88.43h11.09l2-10.38h-11l3.69-18.37H163.52l-3.74,18.37h-7.07l-2,10.38h7L150.85,122c-1.67,10.34,4.17,16.81,14.5,16.81l7,0,2.23-11c-8.18,0-12.14.69-10.9-6Z" transform="translate(-3.76 -3.64)"/><path d="M12.4,164.41l4,11.32,4.08-11.32h1.2L17,177.51H16l-4.74-13.1Z" transform="translate(-3.76 -3.64)"/><path d="M24.68,171.8v5.71H23.63V168h1.05v1.29a2.41,2.41,0,0,1,2.39-1.41,3.12,3.12,0,0,1,2.68,1.31l-.88.65a2.19,2.19,0,0,0-1.9-1C25.49,168.89,24.68,170.07,24.68,171.8Z" transform="translate(-3.76 -3.64)"/><path d="M31.53,164.41h1.28v1.27H31.53Zm.12,3.61h1v9.49h-1Z" transform="translate(-3.76 -3.64)"/><path d="M37.54,178.2c0,2-.67,2.92-2.85,2.92v-1c1.67,0,1.8-.86,1.8-2.28V168h1Zm-1.16-13.79h1.27v1.27H36.38Z" transform="translate(-3.76 -3.64)"/><path d="M47.48,176.49h6.61v1H46.37v-13.1h1.11Z" transform="translate(-3.76 -3.64)"/><path d="M59.84,177.63c-2.45,0-3.85-1.52-3.85-4.18v-1.39c0-2.7,1.42-4.16,3.85-4.16s3.86,1.46,3.86,4.16v1.39C63.7,176,62.39,177.63,59.84,177.63Zm2.82-5.57c0-2.07-1-3.19-2.82-3.19S57,170,57,172.06v1.39c0,2,.9,3.21,2.81,3.21s2.82-1.22,2.82-3.21Z" transform="translate(-3.76 -3.64)"/><path d="M74.11,168l-4.06,4.19,4.71,5.3H73.39L69.29,173l-1.22,1.26v3.26H67v-13.1h1v8.37L72.74,168Z" transform="translate(-3.76 -3.64)"/><path d="M77.93,173v.4c0,1.88.88,3.23,2.89,3.23a2.64,2.64,0,0,0,2.47-1.16l.84.59a3.52,3.52,0,0,1-3.25,1.54c-2.53,0-4-1.56-4-4.2v-1.37c0-2.7,1.29-4.16,3.66-4.16s3.67,1.46,3.67,4.16v1Zm0-.95h5.25v0c0-2.07-.9-3.19-2.63-3.19s-2.62,1.14-2.62,3.19Z" transform="translate(-3.76 -3.64)"/><path d="M88.74,171.8v5.71h-1V168h1v1.29a2.43,2.43,0,0,1,2.4-1.41,3.12,3.12,0,0,1,2.68,1.31l-.88.65a2.19,2.19,0,0,0-1.9-1C89.56,168.89,88.74,170.07,88.74,171.8Z" transform="translate(-3.76 -3.64)"/><path d="M101.62,170.05A2.61,2.61,0,0,0,99,168.89c-1.27,0-2.24.47-2.24,1.56,0,1.33,1.2,1.59,2.53,1.76,1.84.25,3.38.78,3.38,2.8,0,1.48-.95,2.62-3.48,2.62a3.88,3.88,0,0,1-3.57-1.58l.82-.57a2.92,2.92,0,0,0,2.77,1.16c1.48,0,2.41-.47,2.41-1.61s-1-1.64-2.83-1.88c-1.61-.21-3.08-.76-3.08-2.68,0-1.54,1.16-2.57,3.31-2.57a3.54,3.54,0,0,1,3.36,1.58Z" transform="translate(-3.76 -3.64)"/><path d="M115.59,177.63c-2.81,0-4.65-1.75-4.65-5.89v-1.56c0-4.12,1.84-5.89,4.65-5.89s4.65,1.77,4.65,5.89v1.56C120.24,175.88,118.4,177.63,115.59,177.63ZM112,171.74c0,3.55,1.4,4.86,3.55,4.86s3.55-1.31,3.55-4.86v-1.56c0-3.53-1.4-4.86-3.55-4.86s-3.55,1.33-3.55,4.86Z" transform="translate(-3.76 -3.64)"/><path d="M124.14,168h1v1.29a2.87,2.87,0,0,1,2.8-1.41c2.11,0,3.49,1.31,3.49,4v5.62h-1v-5.6c0-2.17-1.08-3-2.57-3-1.78,0-2.68,1.18-2.68,2.93v5.69h-1Z" transform="translate(-3.76 -3.64)"/><path d="M141.37,164.41h1v13.1h-1v-1.15a3,3,0,0,1-2.87,1.27c-2.47,0-3.7-1.6-3.7-4.2v-1.37c0-2.7,1.35-4.16,3.7-4.16a3,3,0,0,1,2.87,1.35Zm0,9v-1.37c0-1.94-.76-3.21-2.79-3.21-1.81,0-2.74,1.12-2.74,3.19v1.37c0,2,.9,3.23,2.74,3.23C140.71,176.66,141.37,175.31,141.37,173.45Z" transform="translate(-3.76 -3.64)"/><path d="M146.79,173v.4c0,1.88.87,3.23,2.88,3.23a2.64,2.64,0,0,0,2.47-1.16l.84.59a3.51,3.51,0,0,1-3.25,1.54c-2.52,0-4-1.56-4-4.2v-1.37c0-2.7,1.29-4.16,3.67-4.16s3.67,1.46,3.67,4.16v1Zm0-.95H152v0c0-2.07-.89-3.19-2.62-3.19s-2.62,1.14-2.62,3.19Z" transform="translate(-3.76 -3.64)"/><path d="M157.6,171.8v5.71h-1V168h1v1.29A2.41,2.41,0,0,1,160,167.9a3.11,3.11,0,0,1,2.68,1.31l-.87.65a2.22,2.22,0,0,0-1.9-1C158.41,168.89,157.6,170.07,157.6,171.8Z" transform="translate(-3.76 -3.64)"/><path d="M169.61,169.69l-2.78,7.82h-.93L163.15,168h1.1l2.16,7.58,2.72-7.58H170l2.78,7.59L175,168h1.1l-2.75,9.49h-.93Z" transform="translate(-3.76 -3.64)"/><path d="M178.54,164.41h1.27v1.27h-1.27Zm.11,3.61h1v9.49h-1Z" transform="translate(-3.76 -3.64)"/><path d="M184.92,178.2c0,2-.67,2.92-2.85,2.92v-1c1.67,0,1.8-.86,1.8-2.28V168h1Zm-1.16-13.79H185v1.27h-1.27Z" transform="translate(-3.76 -3.64)"/><path d="M193.87,170.05a2.64,2.64,0,0,0-2.59-1.16c-1.27,0-2.24.47-2.24,1.56,0,1.33,1.2,1.59,2.53,1.76,1.84.25,3.38.78,3.38,2.8,0,1.48-.95,2.62-3.48,2.62a3.89,3.89,0,0,1-3.57-1.58l.82-.57a2.92,2.92,0,0,0,2.77,1.16c1.49,0,2.42-.47,2.42-1.61s-.95-1.64-2.83-1.88c-1.62-.21-3.08-.76-3.08-2.68,0-1.54,1.16-2.57,3.3-2.57a3.57,3.57,0,0,1,3.37,1.58Z" transform="translate(-3.76 -3.64)"/><path d="M209.54,168l-3.83,9.49h-1L200.8,168H202l3.21,8.11,3.21-8.11Z" transform="translate(-3.76 -3.64)"/><path d="M215.17,177.63c-2.45,0-3.86-1.52-3.86-4.18v-1.39c0-2.7,1.43-4.16,3.86-4.16s3.85,1.46,3.85,4.16v1.39C219,176,217.71,177.63,215.17,177.63Zm2.81-5.57c0-2.07-1-3.19-2.81-3.19s-2.81,1.12-2.81,3.19v1.39c0,2,.89,3.21,2.81,3.21s2.81-1.22,2.81-3.21Z" transform="translate(-3.76 -3.64)"/><path d="M225.35,177.63c-2.45,0-3.86-1.52-3.86-4.18v-1.39c0-2.7,1.43-4.16,3.86-4.16s3.86,1.46,3.86,4.16v1.39C229.21,176,227.9,177.63,225.35,177.63Zm2.81-5.57c0-2.07-1-3.19-2.81-3.19s-2.81,1.12-2.81,3.19v1.39c0,2,.89,3.21,2.81,3.21s2.81-1.22,2.81-3.21Z" transform="translate(-3.76 -3.64)"/><path d="M233.2,171.8v5.71h-1V168h1v1.29a2.41,2.41,0,0,1,2.39-1.41,3.11,3.11,0,0,1,2.68,1.31l-.87.65a2.22,2.22,0,0,0-1.9-1C234,168.89,233.2,170.07,233.2,171.8Z" transform="translate(-3.76 -3.64)"/><path d="M246.92,178.2c0,2-.67,2.92-2.85,2.92v-1c1.67,0,1.8-.86,1.8-2.28V168h1Zm-1.16-13.79H247v1.27h-1.27Z" transform="translate(-3.76 -3.64)"/><path d="M253.81,177.63c-2.45,0-3.85-1.52-3.85-4.18v-1.39c0-2.7,1.42-4.16,3.85-4.16s3.86,1.46,3.86,4.16v1.39C257.67,176,256.36,177.63,253.81,177.63Zm2.81-5.57c0-2.07-1-3.19-2.81-3.19S251,170,251,172.06v1.39c0,2,.89,3.21,2.81,3.21s2.81-1.22,2.81-3.21Z" transform="translate(-3.76 -3.64)"/><path d="M268,177.51H266.9v-1.27a2.92,2.92,0,0,1-2.81,1.39c-2.11,0-3.47-1.29-3.47-4V168h1v5.62c0,2.15,1.08,3,2.55,3,1.8,0,2.69-1.2,2.69-2.92V168H268Z" transform="translate(-3.76 -3.64)"/><path d="M276.69,169.69l-2.78,7.82H273L270.23,168h1.1l2.17,7.58,2.71-7.58h.9l2.77,7.59,2.18-7.59h1.11l-2.76,9.49h-.93Z" transform="translate(-3.76 -3.64)"/><path d="M299.24,164.41v1h-4.16v12.08H294V165.43h-4.16v-1Z" transform="translate(-3.76 -3.64)"/><path d="M304,177.63c-2.45,0-3.85-1.52-3.85-4.18v-1.39c0-2.7,1.42-4.16,3.85-4.16s3.86,1.46,3.86,4.16v1.39C307.81,176,306.5,177.63,304,177.63Zm2.81-5.57c0-2.07-1-3.19-2.81-3.19s-2.81,1.12-2.81,3.19v1.39c0,2,.89,3.21,2.81,3.21s2.81-1.22,2.81-3.21Z" transform="translate(-3.76 -3.64)"/><path d="M311.71,173v.4c0,1.88.87,3.23,2.88,3.23a2.64,2.64,0,0,0,2.47-1.16l.84.59a3.52,3.52,0,0,1-3.25,1.54c-2.53,0-4-1.56-4-4.2v-1.37c0-2.7,1.29-4.16,3.67-4.16s3.66,1.46,3.66,4.16v1Zm0-.95H317v0c0-2.07-.89-3.19-2.62-3.19s-2.62,1.14-2.62,3.19Z" transform="translate(-3.76 -3.64)"/><path d="M328.56,168l-4.07,4.19,4.71,5.3h-1.36L323.73,173l-1.21,1.26v3.26h-1v-13.1h1v8.37l4.67-4.76Z" transform="translate(-3.76 -3.64)"/><path d="M334.71,177.63c-2.45,0-3.85-1.52-3.85-4.18v-1.39c0-2.7,1.42-4.16,3.85-4.16s3.86,1.46,3.86,4.16v1.39C338.57,176,337.26,177.63,334.71,177.63Zm2.81-5.57c0-2.07-1-3.19-2.81-3.19s-2.81,1.12-2.81,3.19v1.39c0,2,.9,3.21,2.81,3.21s2.81-1.22,2.81-3.21Z" transform="translate(-3.76 -3.64)"/><path d="M341.9,168h1v1.29a2.53,2.53,0,0,1,2.51-1.41,2.86,2.86,0,0,1,2.83,1.86,3,3,0,0,1,2.89-1.86c2,0,3.21,1.41,3.21,4v5.62h-1.05v-5.6c0-2.07-.91-3-2.28-3-1.52,0-2.39,1.12-2.39,2.79v5.83h-1.05v-5.6c0-2.07-.91-3-2.28-3-1.55,0-2.39,1.18-2.39,2.93v5.69h-1Z" transform="translate(-3.76 -3.64)"/><path d="M363.61,170.05a2.62,2.62,0,0,0-2.58-1.16c-1.27,0-2.24.47-2.24,1.56,0,1.33,1.19,1.59,2.52,1.76,1.85.25,3.38.78,3.38,2.8,0,1.48-.95,2.62-3.47,2.62a3.88,3.88,0,0,1-3.57-1.58l.81-.57a2.94,2.94,0,0,0,2.78,1.16c1.48,0,2.41-.47,2.41-1.61s-.95-1.64-2.83-1.88c-1.62-.21-3.08-.76-3.08-2.68,0-1.54,1.16-2.57,3.31-2.57a3.54,3.54,0,0,1,3.36,1.58Z" transform="translate(-3.76 -3.64)"/><path d="M367.24,168h1.22v-2.09h1V168h2.34v1H369.5v5.32c0,1.52.17,2.21,1.71,2.21h.63v1h-.66c-2.11,0-2.72-.95-2.72-2.92V169h-1.22Z" transform="translate(-3.76 -3.64)"/></svg>