<?xml version="1.0" encoding="utf-8"?>
<!-- Generator: Adobe Illustrator 27.3.1, SVG Export Plug-In . SVG Version: 6.00 Build 0)  -->
<svg version="1.1" id="Laag_1" xmlns="http://www.w3.org/2000/svg" xmlns:xlink="http://www.w3.org/1999/xlink" x="0px" y="0px"
	 viewBox="0 0 128 128" style="enable-background:new 0 0 128 128;" xml:space="preserve">
<style type="text/css">
	.st0{fill:#E73D1F;}
	.st1{fill:#2E8CBE;}
	.st2{fill:#F49823;}
	.st3{fill:#84BC2A;}
</style>
<g>
	<path class="st0" d="M10.2,94.5c0,0,5.4-11.6,11.6-23.9C26,62.1,30.7,53.5,34.1,47c7.3-13.6,14-21.4,15.7-23.4
		c0.2-0.2,0.2-0.6-0.1-0.8c0,0,0,0-0.1,0c-4.2-2.5-8.7-4.6-13.3-6.1C28.1,13.9,25.2,13,23.5,13s-2.5,2.1-3,4.1
		c-0.5,2-3.9,21.3-6.1,36.7S9.2,92.4,9.1,94.1c0,0.4,0,0.5,0.4,0.7c0.2,0.1,0.6,0,0.7-0.2C10.2,94.6,10.2,94.6,10.2,94.5z"/>
	<path class="st1" d="M16.8,96c-0.1,0.3-0.2,0.5,0.2,0.7c0.3,0.2,0.7,0.2,0.9-0.1c8.6-9.2,18.2-17.5,28.5-24.7
		C57.6,64,69.8,57.5,82.6,52.5c0.4-0.2,0.5-0.6,0.4-0.9c0,0,0-0.1-0.1-0.1c-3.2-4.1-6.6-8-10.3-11.6c-3.1-3.1-6.5-6-10.1-8.6
		c-0.5-0.3-1-0.3-1.4,0.1C58.4,33.7,47.8,43,35.3,63C25.4,78.8,19,91.3,16.8,96z"/>
	<path class="st2" d="M24.5,98.8l0.4,0.3c0.1,0.1,0.3,0.1,0.4,0c1.8-1,15.5-8,39-11.8c19.3-3.1,36-0.7,40.2-0.4
		c0.3,0,0.5-0.2,0.5-0.4c0-0.1,0-0.2,0-0.2c-0.9-1.9-4-7.4-7.1-12.4c-3.1-5-5.4-8.6-6.1-9.6c-0.2-0.2-0.4-0.3-0.7-0.3
		c-2,0.3-6.5,1-16.1,3.4c-8.8,2.2-17,5.4-29.5,12.7c-11.3,6.7-19.3,16.2-21.1,18.2C24.4,98.4,24.4,98.6,24.5,98.8
		C24.5,98.8,24.5,98.8,24.5,98.8z"/>
	<path class="st3" d="M32.8,101.9c-0.3,0.1-0.2,0.7,0,0.8c0.2,0.1,14.8,5.4,40.3,8.5c22.6,2.8,39.4,3.8,51.2,3.8
		c0.3,0,0.5-0.2,0.5-0.4c0-0.1,0-0.2-0.1-0.3c-1.6-2-5.8-7-8.8-10.5c-2.2-2.5-4.2-5.1-6-7.8c-0.2-0.3-0.5-0.4-0.8-0.5
		c-12.6-1.4-25.2-1.7-37.8-0.9C47,96.1,33.1,101.8,32.8,101.9z"/>
	<path class="st0" d="M3,102.5l7.7-2c0.2,0,0.3,0,0.4,0.2c0.6,1.7,1.1,3.4,1.4,5.2c0.3,1.8,0.5,2.7-0.8,3.5
		c-1.6,0.9-3.4,1.3-5.3,1.4c-1.6,0-2.5,0.1-2.8-1.1C3.2,107.3,3,104.9,3,102.5z"/>
</g>
</svg>
