<?xml version="1.0" encoding="utf-8"?>
<!-- Generator: Adobe Illustrator 27.3.1, SVG Export Plug-In . SVG Version: 6.00 Build 0)  -->
<svg version="1.1" id="Laag_1" xmlns="http://www.w3.org/2000/svg" xmlns:xlink="http://www.w3.org/1999/xlink" x="0px" y="0px"
	 viewBox="0 0 17.1 17.1" style="enable-background:new 0 0 17.1 17.1;" xml:space="preserve">
<style type="text/css">
	.st0{fill:#00609B;}
	.st1{fill:#FFFFFF;}
</style>
<circle class="st0" cx="8.5" cy="8.5" r="8.5"/>
<path class="st1" d="M9.4,8.5l3.4-3.4c0.2-0.2,0.2-0.6,0-0.9c-0.2-0.2-0.6-0.2-0.9,0L8.5,7.7L5.2,4.3c-0.2-0.2-0.6-0.2-0.9,0
	s-0.2,0.6,0,0.9l3.4,3.4l-3.4,3.4c-0.2,0.2-0.2,0.6,0,0.9c0.1,0.1,0.3,0.2,0.4,0.2c0.2,0,0.3-0.1,0.4-0.2l3.4-3.4l3.4,3.4
	c0.1,0.1,0.3,0.2,0.4,0.2c0.2,0,0.3-0.1,0.4-0.2c0.2-0.2,0.2-0.6,0-0.9L9.4,8.5z"/>
</svg>
