<?xml version="1.0" encoding="utf-8"?>
<!-- Generator: Adobe Illustrator 27.3.1, SVG Export Plug-In . SVG Version: 6.00 Build 0)  -->
<svg version="1.1" id="Laag_2_00000092422028308821544070000006506088187614270099_"
	 xmlns="http://www.w3.org/2000/svg" xmlns:xlink="http://www.w3.org/1999/xlink" x="0px" y="0px" viewBox="0 0 242.5 262.1"
	 style="enable-background:new 0 0 242.5 262.1;" xml:space="preserve">
<style type="text/css">
	.st0{fill:none;stroke:#AD7F3D;stroke-width:4;stroke-linecap:round;stroke-linejoin:round;}
	.st1{fill:none;stroke:#AD7F3D;stroke-width:3.88;stroke-linecap:round;stroke-linejoin:round;}
</style>
<path class="st0" d="M15.2,39.6c0,0,14.6,194.5,22.1,205s94.6,28.9,165.2,0c6.4-2.2,24.8-205.5,24.8-205.5L15.2,39.6L15.2,39.6z"/>
<line class="st0" x1="159.1" y1="232.1" x2="183.6" y2="60.6"/>
<line class="st0" x1="79.6" y1="232.2" x2="60.6" y2="59.8"/>
<line class="st0" x1="121" y1="232.5" x2="120.8" y2="60.2"/>
<path class="st0" d="M4.7,39h233.5c0,0,5.3-7.7,0-13.7L4.7,26.7C4.7,26.7-1.3,33,4.7,39z"/>
<polygon class="st0" points="146.1,25.9 140.7,10.8 104.1,10.8 98.3,25.9 "/>
<polygon class="st1" points="162.4,25.8 153.3,1.9 91.9,1.9 82.1,25.9 "/>
</svg>
