<?xml version="1.0" encoding="utf-8"?>
<!-- Generator: Adobe Illustrator 27.2.0, SVG Export Plug-In . SVG Version: 6.00 Build 0)  -->
<svg version="1.1" id="Laag_1" xmlns="http://www.w3.org/2000/svg" xmlns:xlink="http://www.w3.org/1999/xlink" x="0px" y="0px"
	 viewBox="0 0 128 128" style="enable-background:new 0 0 128 128;" xml:space="preserve">
<style type="text/css">
	.st0{fill:#D8D8D8;}
</style>
<path d="M128,64.4c-0.4,35.8-29.2,64-64.9,63.5C27.6,127.5-0.4,98.7,0,63C0.4,27.7,29.2-0.3,64.7,0C100,0.3,128.4,29.2,128,64.4z
	 M103.8,107.9c18-14.7,24.6-42.9,15.5-65.9C109.7,17.5,85.6,2.8,58.2,4.7C34,6.4,12.1,25.4,6.1,49.8c-5.6,22.9,3.6,46.9,18.1,57.8
	C40.6,73.6,87.2,73.6,103.8,107.9z"/>
<path class="st0" d="M103.8,107.9c-16.6-34.3-63.2-34.3-79.6-0.3C9.7,96.6,0.5,72.7,6.1,49.8C12.1,25.4,34,6.4,58.2,4.7
	c27.4-1.9,51.5,12.7,61.1,37.3C128.4,65,121.9,93.2,103.8,107.9z M64.1,77.5c12.8,0,23.1-10.4,23.1-23.1c0-12.8-10.3-23.1-23.1-23.2
	c-12.9,0-23.4,10.5-23.3,23.3C40.9,67.4,51.2,77.6,64.1,77.5z"/>
<path d="M64.1,77.5c-12.8,0-23.2-10.2-23.3-22.9c-0.1-12.9,10.4-23.4,23.3-23.3c12.7,0,23,10.4,23.1,23.2
	C87.2,67.2,76.8,77.5,64.1,77.5z"/>
</svg>
